<mxfile host="app.diagrams.net" modified="2024-05-31T14:30:18.137Z" agent="Mozilla/5.0 (Macintosh; Intel Mac OS X 10_15_7) AppleWebKit/537.36 (KHTML, like Gecko) Chrome/124.0.0.0 Safari/537.36" etag="p_2GK9HpsM43JIwRRHic" version="24.4.13" type="device">
  <diagram name="Page-1" id="Tr4KCWPK66j0L3I0TiuB">
    <mxGraphModel dx="1008" dy="842" grid="1" gridSize="10" guides="1" tooltips="1" connect="1" arrows="1" fold="1" page="1" pageScale="1" pageWidth="850" pageHeight="1100" math="0" shadow="0">
      <root>
        <mxCell id="0" />
        <mxCell id="1" parent="0" />
        <mxCell id="1iXzbgmd0ODj5TQzVyFe-50" value="" style="rounded=1;whiteSpace=wrap;html=1;fillColor=#f5f5f5;fontColor=#333333;strokeColor=#666666;fontFamily=Nanum Gothic Coding;fontSource=https%3A%2F%2Ffonts.googleapis.com%2Fcss%3Ffamily%3DNanum%2BGothic%2BCoding;" vertex="1" parent="1">
          <mxGeometry x="550" y="180" width="390" height="480" as="geometry" />
        </mxCell>
        <mxCell id="1iXzbgmd0ODj5TQzVyFe-47" value="" style="rounded=1;whiteSpace=wrap;html=1;fillColor=#f5f5f5;fontColor=#333333;strokeColor=#666666;fontFamily=Nanum Gothic Coding;fontSource=https%3A%2F%2Ffonts.googleapis.com%2Fcss%3Ffamily%3DNanum%2BGothic%2BCoding;" vertex="1" parent="1">
          <mxGeometry x="40" y="120" width="200" height="340" as="geometry" />
        </mxCell>
        <mxCell id="1iXzbgmd0ODj5TQzVyFe-1" value="COMMON&lt;div&gt;MOCKSERVER&lt;/div&gt;" style="rounded=1;whiteSpace=wrap;html=1;fontFamily=Nanum Gothic Coding;fontSize=15;fontStyle=1;fontSource=https%3A%2F%2Ffonts.googleapis.com%2Fcss%3Ffamily%3DNanum%2BGothic%2BCoding;fillColor=#f8cecc;strokeColor=#b85450;" vertex="1" parent="1">
          <mxGeometry x="80" y="160" width="120" height="60" as="geometry" />
        </mxCell>
        <mxCell id="1iXzbgmd0ODj5TQzVyFe-2" value="PERFORMANCE&lt;div&gt;MOCKSERVER&lt;/div&gt;" style="rounded=1;whiteSpace=wrap;html=1;fontFamily=Nanum Gothic Coding;fontSize=15;fontStyle=1;fontSource=https%3A%2F%2Ffonts.googleapis.com%2Fcss%3Ffamily%3DNanum%2BGothic%2BCoding;fillColor=#f8cecc;strokeColor=#b85450;" vertex="1" parent="1">
          <mxGeometry x="80" y="240" width="120" height="60" as="geometry" />
        </mxCell>
        <mxCell id="1iXzbgmd0ODj5TQzVyFe-3" value="PERFORMANCE&lt;div&gt;MOCKSERVER&lt;/div&gt;" style="rounded=1;whiteSpace=wrap;html=1;fontFamily=Nanum Gothic Coding;fontSize=15;fontStyle=1;fontSource=https%3A%2F%2Ffonts.googleapis.com%2Fcss%3Ffamily%3DNanum%2BGothic%2BCoding;fillColor=#f8cecc;strokeColor=#b85450;" vertex="1" parent="1">
          <mxGeometry x="80" y="360" width="120" height="60" as="geometry" />
        </mxCell>
        <mxCell id="1iXzbgmd0ODj5TQzVyFe-22" style="edgeStyle=orthogonalEdgeStyle;rounded=0;orthogonalLoop=1;jettySize=auto;html=1;exitX=0.75;exitY=1;exitDx=0;exitDy=0;entryX=0.75;entryY=0;entryDx=0;entryDy=0;fontFamily=Nanum Gothic Coding;fontSource=https%3A%2F%2Ffonts.googleapis.com%2Fcss%3Ffamily%3DNanum%2BGothic%2BCoding;" edge="1" parent="1" source="1iXzbgmd0ODj5TQzVyFe-5" target="1iXzbgmd0ODj5TQzVyFe-6">
          <mxGeometry relative="1" as="geometry" />
        </mxCell>
        <mxCell id="1iXzbgmd0ODj5TQzVyFe-5" value="TESTCRAFT" style="rounded=1;whiteSpace=wrap;html=1;fontFamily=Nanum Gothic Coding;fontSize=15;fontStyle=1;fontSource=https%3A%2F%2Ffonts.googleapis.com%2Fcss%3Ffamily%3DNanum%2BGothic%2BCoding;fillColor=#f8cecc;strokeColor=#b85450;" vertex="1" parent="1">
          <mxGeometry x="320" y="160" width="120" height="60" as="geometry" />
        </mxCell>
        <mxCell id="1iXzbgmd0ODj5TQzVyFe-16" style="edgeStyle=orthogonalEdgeStyle;rounded=0;orthogonalLoop=1;jettySize=auto;html=1;exitX=0;exitY=0.25;exitDx=0;exitDy=0;entryX=1;entryY=0.5;entryDx=0;entryDy=0;fontFamily=Nanum Gothic Coding;fontSource=https%3A%2F%2Ffonts.googleapis.com%2Fcss%3Ffamily%3DNanum%2BGothic%2BCoding;" edge="1" parent="1" source="1iXzbgmd0ODj5TQzVyFe-6" target="1iXzbgmd0ODj5TQzVyFe-1">
          <mxGeometry relative="1" as="geometry" />
        </mxCell>
        <mxCell id="1iXzbgmd0ODj5TQzVyFe-18" style="edgeStyle=orthogonalEdgeStyle;rounded=0;orthogonalLoop=1;jettySize=auto;html=1;exitX=0;exitY=0.75;exitDx=0;exitDy=0;entryX=1;entryY=0.5;entryDx=0;entryDy=0;fontFamily=Nanum Gothic Coding;fontSource=https%3A%2F%2Ffonts.googleapis.com%2Fcss%3Ffamily%3DNanum%2BGothic%2BCoding;" edge="1" parent="1" source="1iXzbgmd0ODj5TQzVyFe-6" target="1iXzbgmd0ODj5TQzVyFe-3">
          <mxGeometry relative="1" as="geometry" />
        </mxCell>
        <mxCell id="1iXzbgmd0ODj5TQzVyFe-24" style="edgeStyle=orthogonalEdgeStyle;rounded=0;orthogonalLoop=1;jettySize=auto;html=1;exitX=1;exitY=0.5;exitDx=0;exitDy=0;entryX=0;entryY=0.25;entryDx=0;entryDy=0;fontFamily=Nanum Gothic Coding;fontSource=https%3A%2F%2Ffonts.googleapis.com%2Fcss%3Ffamily%3DNanum%2BGothic%2BCoding;" edge="1" parent="1" source="1iXzbgmd0ODj5TQzVyFe-6" target="1iXzbgmd0ODj5TQzVyFe-8">
          <mxGeometry relative="1" as="geometry" />
        </mxCell>
        <mxCell id="1iXzbgmd0ODj5TQzVyFe-25" style="edgeStyle=orthogonalEdgeStyle;rounded=0;orthogonalLoop=1;jettySize=auto;html=1;exitX=1;exitY=0.5;exitDx=0;exitDy=0;entryX=0;entryY=0.5;entryDx=0;entryDy=0;fontFamily=Nanum Gothic Coding;fontSource=https%3A%2F%2Ffonts.googleapis.com%2Fcss%3Ffamily%3DNanum%2BGothic%2BCoding;" edge="1" parent="1" source="1iXzbgmd0ODj5TQzVyFe-6" target="1iXzbgmd0ODj5TQzVyFe-9">
          <mxGeometry relative="1" as="geometry" />
        </mxCell>
        <mxCell id="1iXzbgmd0ODj5TQzVyFe-26" style="edgeStyle=orthogonalEdgeStyle;rounded=0;orthogonalLoop=1;jettySize=auto;html=1;exitX=1;exitY=0.5;exitDx=0;exitDy=0;entryX=0;entryY=0.5;entryDx=0;entryDy=0;fontFamily=Nanum Gothic Coding;fontSource=https%3A%2F%2Ffonts.googleapis.com%2Fcss%3Ffamily%3DNanum%2BGothic%2BCoding;" edge="1" parent="1" source="1iXzbgmd0ODj5TQzVyFe-6" target="1iXzbgmd0ODj5TQzVyFe-10">
          <mxGeometry relative="1" as="geometry" />
        </mxCell>
        <mxCell id="1iXzbgmd0ODj5TQzVyFe-27" style="edgeStyle=orthogonalEdgeStyle;rounded=0;orthogonalLoop=1;jettySize=auto;html=1;exitX=1;exitY=0.5;exitDx=0;exitDy=0;entryX=0;entryY=0.5;entryDx=0;entryDy=0;fontFamily=Nanum Gothic Coding;fontSource=https%3A%2F%2Ffonts.googleapis.com%2Fcss%3Ffamily%3DNanum%2BGothic%2BCoding;" edge="1" parent="1" source="1iXzbgmd0ODj5TQzVyFe-6" target="1iXzbgmd0ODj5TQzVyFe-11">
          <mxGeometry relative="1" as="geometry" />
        </mxCell>
        <mxCell id="1iXzbgmd0ODj5TQzVyFe-28" style="edgeStyle=orthogonalEdgeStyle;rounded=0;orthogonalLoop=1;jettySize=auto;html=1;exitX=1;exitY=0.5;exitDx=0;exitDy=0;entryX=0;entryY=0.5;entryDx=0;entryDy=0;fontFamily=Nanum Gothic Coding;fontSource=https%3A%2F%2Ffonts.googleapis.com%2Fcss%3Ffamily%3DNanum%2BGothic%2BCoding;" edge="1" parent="1" source="1iXzbgmd0ODj5TQzVyFe-6" target="1iXzbgmd0ODj5TQzVyFe-7">
          <mxGeometry relative="1" as="geometry" />
        </mxCell>
        <mxCell id="1iXzbgmd0ODj5TQzVyFe-6" value="TESTCRAFT-API" style="rounded=1;whiteSpace=wrap;html=1;fontFamily=Nanum Gothic Coding;fontSize=15;fontStyle=1;fontSource=https%3A%2F%2Ffonts.googleapis.com%2Fcss%3Ffamily%3DNanum%2BGothic%2BCoding;fillColor=#f8cecc;strokeColor=#b85450;" vertex="1" parent="1">
          <mxGeometry x="320" y="240" width="120" height="60" as="geometry" />
        </mxCell>
        <mxCell id="1iXzbgmd0ODj5TQzVyFe-7" value="PF-TEST-API" style="rounded=1;whiteSpace=wrap;html=1;fontFamily=Nanum Gothic Coding;fontSize=15;fontStyle=1;fontSource=https%3A%2F%2Ffonts.googleapis.com%2Fcss%3Ffamily%3DNanum%2BGothic%2BCoding;fillColor=#e1d5e7;strokeColor=#9673a6;" vertex="1" parent="1">
          <mxGeometry x="600" y="240" width="120" height="60" as="geometry" />
        </mxCell>
        <mxCell id="1iXzbgmd0ODj5TQzVyFe-8" value="JENKINS" style="rounded=1;whiteSpace=wrap;html=1;fontFamily=Nanum Gothic Coding;fontSize=15;fontStyle=1;fontSource=https%3A%2F%2Ffonts.googleapis.com%2Fcss%3Ffamily%3DNanum%2BGothic%2BCoding;fillColor=#e1d5e7;strokeColor=#9673a6;" vertex="1" parent="1">
          <mxGeometry x="600" y="320" width="120" height="60" as="geometry" />
        </mxCell>
        <mxCell id="1iXzbgmd0ODj5TQzVyFe-9" value="HARBOR" style="rounded=1;whiteSpace=wrap;html=1;fontFamily=Nanum Gothic Coding;fontSize=15;fontStyle=1;fontSource=https%3A%2F%2Ffonts.googleapis.com%2Fcss%3Ffamily%3DNanum%2BGothic%2BCoding;dashed=1;dashPattern=12 12;" vertex="1" parent="1">
          <mxGeometry x="600" y="400" width="120" height="60" as="geometry" />
        </mxCell>
        <mxCell id="1iXzbgmd0ODj5TQzVyFe-10" value="GITHUB" style="rounded=1;whiteSpace=wrap;html=1;fontFamily=Nanum Gothic Coding;fontSize=15;fontStyle=1;fontSource=https%3A%2F%2Ffonts.googleapis.com%2Fcss%3Ffamily%3DNanum%2BGothic%2BCoding;dashed=1;dashPattern=12 12;" vertex="1" parent="1">
          <mxGeometry x="600" y="480" width="120" height="60" as="geometry" />
        </mxCell>
        <mxCell id="1iXzbgmd0ODj5TQzVyFe-11" value="NGRINDER" style="rounded=1;whiteSpace=wrap;html=1;fontFamily=Nanum Gothic Coding;fontSize=15;fontStyle=1;fontSource=https%3A%2F%2Ffonts.googleapis.com%2Fcss%3Ffamily%3DNanum%2BGothic%2BCoding;fillColor=#fff2cc;strokeColor=#d6b656;" vertex="1" parent="1">
          <mxGeometry x="600" y="560" width="120" height="60" as="geometry" />
        </mxCell>
        <mxCell id="1iXzbgmd0ODj5TQzVyFe-12" value="KUBERNETES&lt;div&gt;CLUSTER&lt;/div&gt;" style="rounded=1;whiteSpace=wrap;html=1;fontFamily=Nanum Gothic Coding;fontSize=15;fontStyle=1;fontSource=https%3A%2F%2Ffonts.googleapis.com%2Fcss%3Ffamily%3DNanum%2BGothic%2BCoding;dashed=1;dashPattern=12 12;" vertex="1" parent="1">
          <mxGeometry x="760" y="240" width="120" height="140" as="geometry" />
        </mxCell>
        <mxCell id="1iXzbgmd0ODj5TQzVyFe-13" value="MYSQL" style="shape=cylinder3;whiteSpace=wrap;html=1;boundedLbl=1;backgroundOutline=1;size=15;fontFamily=Nanum Gothic Coding;fontSize=15;fontStyle=1;fontSource=https%3A%2F%2Ffonts.googleapis.com%2Fcss%3Ffamily%3DNanum%2BGothic%2BCoding;fillColor=#f8cecc;strokeColor=#b85450;" vertex="1" parent="1">
          <mxGeometry x="300" y="360" width="60" height="80" as="geometry" />
        </mxCell>
        <mxCell id="1iXzbgmd0ODj5TQzVyFe-14" value="ELASTIC&lt;div&gt;SEARCH&lt;/div&gt;" style="shape=cylinder3;whiteSpace=wrap;html=1;boundedLbl=1;backgroundOutline=1;size=15;fontFamily=Nanum Gothic Coding;fontSize=15;fontStyle=1;fontSource=https%3A%2F%2Ffonts.googleapis.com%2Fcss%3Ffamily%3DNanum%2BGothic%2BCoding;fillColor=#f8cecc;strokeColor=#b85450;" vertex="1" parent="1">
          <mxGeometry x="400" y="360" width="60" height="80" as="geometry" />
        </mxCell>
        <mxCell id="1iXzbgmd0ODj5TQzVyFe-17" style="edgeStyle=orthogonalEdgeStyle;rounded=0;orthogonalLoop=1;jettySize=auto;html=1;exitX=0;exitY=0.5;exitDx=0;exitDy=0;entryX=1.03;entryY=0.51;entryDx=0;entryDy=0;entryPerimeter=0;fontFamily=Nanum Gothic Coding;fontSource=https%3A%2F%2Ffonts.googleapis.com%2Fcss%3Ffamily%3DNanum%2BGothic%2BCoding;" edge="1" parent="1" source="1iXzbgmd0ODj5TQzVyFe-6" target="1iXzbgmd0ODj5TQzVyFe-2">
          <mxGeometry relative="1" as="geometry" />
        </mxCell>
        <mxCell id="1iXzbgmd0ODj5TQzVyFe-19" style="edgeStyle=orthogonalEdgeStyle;rounded=0;orthogonalLoop=1;jettySize=auto;html=1;exitX=0.25;exitY=1;exitDx=0;exitDy=0;entryX=0.487;entryY=-0.027;entryDx=0;entryDy=0;entryPerimeter=0;fontFamily=Nanum Gothic Coding;fontSource=https%3A%2F%2Ffonts.googleapis.com%2Fcss%3Ffamily%3DNanum%2BGothic%2BCoding;" edge="1" parent="1" source="1iXzbgmd0ODj5TQzVyFe-6" target="1iXzbgmd0ODj5TQzVyFe-13">
          <mxGeometry relative="1" as="geometry" />
        </mxCell>
        <mxCell id="1iXzbgmd0ODj5TQzVyFe-20" style="edgeStyle=orthogonalEdgeStyle;rounded=0;orthogonalLoop=1;jettySize=auto;html=1;exitX=0.75;exitY=1;exitDx=0;exitDy=0;entryX=0.5;entryY=0;entryDx=0;entryDy=0;entryPerimeter=0;fontFamily=Nanum Gothic Coding;fontSource=https%3A%2F%2Ffonts.googleapis.com%2Fcss%3Ffamily%3DNanum%2BGothic%2BCoding;" edge="1" parent="1" source="1iXzbgmd0ODj5TQzVyFe-6" target="1iXzbgmd0ODj5TQzVyFe-14">
          <mxGeometry relative="1" as="geometry" />
        </mxCell>
        <mxCell id="1iXzbgmd0ODj5TQzVyFe-21" style="edgeStyle=orthogonalEdgeStyle;rounded=0;orthogonalLoop=1;jettySize=auto;html=1;exitX=0.25;exitY=0;exitDx=0;exitDy=0;entryX=0.253;entryY=1.063;entryDx=0;entryDy=0;entryPerimeter=0;fontFamily=Nanum Gothic Coding;fontSource=https%3A%2F%2Ffonts.googleapis.com%2Fcss%3Ffamily%3DNanum%2BGothic%2BCoding;" edge="1" parent="1" source="1iXzbgmd0ODj5TQzVyFe-6" target="1iXzbgmd0ODj5TQzVyFe-5">
          <mxGeometry relative="1" as="geometry" />
        </mxCell>
        <mxCell id="1iXzbgmd0ODj5TQzVyFe-29" style="edgeStyle=orthogonalEdgeStyle;rounded=0;orthogonalLoop=1;jettySize=auto;html=1;entryX=0;entryY=0.214;entryDx=0;entryDy=0;entryPerimeter=0;fontFamily=Nanum Gothic Coding;fontSource=https%3A%2F%2Ffonts.googleapis.com%2Fcss%3Ffamily%3DNanum%2BGothic%2BCoding;" edge="1" parent="1" source="1iXzbgmd0ODj5TQzVyFe-7" target="1iXzbgmd0ODj5TQzVyFe-12">
          <mxGeometry relative="1" as="geometry" />
        </mxCell>
        <mxCell id="1iXzbgmd0ODj5TQzVyFe-30" style="edgeStyle=orthogonalEdgeStyle;rounded=0;orthogonalLoop=1;jettySize=auto;html=1;entryX=0;entryY=0.786;entryDx=0;entryDy=0;entryPerimeter=0;fontFamily=Nanum Gothic Coding;fontSource=https%3A%2F%2Ffonts.googleapis.com%2Fcss%3Ffamily%3DNanum%2BGothic%2BCoding;" edge="1" parent="1" source="1iXzbgmd0ODj5TQzVyFe-8" target="1iXzbgmd0ODj5TQzVyFe-12">
          <mxGeometry relative="1" as="geometry" />
        </mxCell>
        <mxCell id="1iXzbgmd0ODj5TQzVyFe-31" value="" style="rounded=1;whiteSpace=wrap;html=1;fontFamily=Nanum Gothic Coding;fontSize=15;fontStyle=1;fontSource=https%3A%2F%2Ffonts.googleapis.com%2Fcss%3Ffamily%3DNanum%2BGothic%2BCoding;fillColor=#f8cecc;strokeColor=#b85450;" vertex="1" parent="1">
          <mxGeometry x="150" y="535" width="120" height="20" as="geometry" />
        </mxCell>
        <mxCell id="1iXzbgmd0ODj5TQzVyFe-32" value="" style="rounded=1;whiteSpace=wrap;html=1;fontFamily=Nanum Gothic Coding;fontSize=15;fontStyle=1;fontSource=https%3A%2F%2Ffonts.googleapis.com%2Fcss%3Ffamily%3DNanum%2BGothic%2BCoding;fillColor=#e1d5e7;strokeColor=#9673a6;" vertex="1" parent="1">
          <mxGeometry x="150" y="575" width="120" height="20" as="geometry" />
        </mxCell>
        <mxCell id="1iXzbgmd0ODj5TQzVyFe-39" value="&lt;font data-font-src=&quot;https://fonts.googleapis.com/css?family=Coming+Soon&quot;&gt;Contribute less than 50%&lt;/font&gt;" style="text;html=1;align=left;verticalAlign=middle;whiteSpace=wrap;rounded=0;fontFamily=Nanum Gothic Coding;fontSource=https%3A%2F%2Ffonts.googleapis.com%2Fcss%3Ffamily%3DNanum%2BGothic%2BCoding;fontSize=14;" vertex="1" parent="1">
          <mxGeometry x="290" y="570" width="190" height="30" as="geometry" />
        </mxCell>
        <mxCell id="1iXzbgmd0ODj5TQzVyFe-44" value="&lt;font data-font-src=&quot;https://fonts.googleapis.com/css?family=Coming+Soon&quot;&gt;Contribute more than 90%&lt;/font&gt;" style="text;html=1;align=left;verticalAlign=middle;whiteSpace=wrap;rounded=0;fontFamily=Nanum Gothic Coding;fontSource=https%3A%2F%2Ffonts.googleapis.com%2Fcss%3Ffamily%3DNanum%2BGothic%2BCoding;fontSize=14;" vertex="1" parent="1">
          <mxGeometry x="290" y="530" width="190" height="30" as="geometry" />
        </mxCell>
        <mxCell id="1iXzbgmd0ODj5TQzVyFe-48" value="" style="rounded=1;whiteSpace=wrap;html=1;fontFamily=Nanum Gothic Coding;fontSize=15;fontStyle=1;fontSource=https%3A%2F%2Ffonts.googleapis.com%2Fcss%3Ffamily%3DNanum%2BGothic%2BCoding;fillColor=#fff2cc;strokeColor=#d6b656;" vertex="1" parent="1">
          <mxGeometry x="150" y="620" width="120" height="20" as="geometry" />
        </mxCell>
        <mxCell id="1iXzbgmd0ODj5TQzVyFe-49" value="&lt;font data-font-src=&quot;https://fonts.googleapis.com/css?family=Coming+Soon&quot;&gt;Contribute less than 30%&lt;/font&gt;" style="text;html=1;align=left;verticalAlign=middle;whiteSpace=wrap;rounded=0;fontFamily=Nanum Gothic Coding;fontSource=https%3A%2F%2Ffonts.googleapis.com%2Fcss%3Ffamily%3DNanum%2BGothic%2BCoding;fontSize=14;" vertex="1" parent="1">
          <mxGeometry x="290" y="615" width="190" height="30" as="geometry" />
        </mxCell>
        <mxCell id="1iXzbgmd0ODj5TQzVyFe-51" value="MockServer" style="text;html=1;align=center;verticalAlign=middle;whiteSpace=wrap;rounded=0;fontFamily=Nanum Gothic Coding;fontSource=https%3A%2F%2Ffonts.googleapis.com%2Fcss%3Ffamily%3DNanum%2BGothic%2BCoding;fontSize=20;" vertex="1" parent="1">
          <mxGeometry x="40" y="90" width="130" height="30" as="geometry" />
        </mxCell>
        <mxCell id="1iXzbgmd0ODj5TQzVyFe-52" value="Performance Test Zone" style="text;html=1;align=center;verticalAlign=middle;whiteSpace=wrap;rounded=0;fontFamily=Nanum Gothic Coding;fontSource=https%3A%2F%2Ffonts.googleapis.com%2Fcss%3Ffamily%3DNanum%2BGothic%2BCoding;fontSize=20;" vertex="1" parent="1">
          <mxGeometry x="550" y="150" width="230" height="30" as="geometry" />
        </mxCell>
        <mxCell id="1iXzbgmd0ODj5TQzVyFe-53" value="" style="endArrow=none;dashed=1;html=1;dashPattern=1 3;strokeWidth=2;rounded=0;" edge="1" parent="1">
          <mxGeometry width="50" height="50" relative="1" as="geometry">
            <mxPoint x="139.58" y="343" as="sourcePoint" />
            <mxPoint x="139.58" y="313" as="targetPoint" />
            <Array as="points">
              <mxPoint x="140" y="323" />
            </Array>
          </mxGeometry>
        </mxCell>
      </root>
    </mxGraphModel>
  </diagram>
</mxfile>
